<svg xmlns="http://www.w3.org/2000/svg" xmlns:xlink="http://www.w3.org/1999/xlink" width="500" zoomAndPan="magnify" viewBox="0 0 375 374.999991" height="500" preserveAspectRatio="xMidYMid meet" version="1.0"><defs><g/></defs><g fill="#ffffff" fill-opacity="1"><g transform="translate(14.346347, 244.874984)"><g><path d="M 17.652344 -52.265625 L 17.652344 -91.257812 C 17.652344 -91.722656 17.191406 -92.296875 16.382812 -92.296875 L 1.269531 -92.296875 C 0.578125 -92.296875 0 -91.722656 0 -91.257812 L 0 -52.265625 Z M 68.992188 -92.296875 L 53.878906 -92.296875 C 53.1875 -92.296875 52.609375 -91.722656 52.609375 -91.257812 L 52.609375 -34.496094 L 17.652344 -34.496094 L 17.652344 -34.613281 L 0 -34.613281 L 0 -1.039062 C 0 -0.578125 0.578125 0 1.269531 0 L 16.382812 0 C 17.191406 0 17.652344 -0.578125 17.652344 -1.039062 L 17.652344 -17.304688 L 52.609375 -17.304688 L 52.609375 -1.039062 C 52.609375 -0.578125 53.1875 0 53.878906 0 L 68.992188 0 C 69.800781 0 70.261719 -0.578125 70.261719 -1.039062 L 70.261719 -91.257812 C 70.261719 -91.722656 69.800781 -92.296875 68.992188 -92.296875 Z M 68.992188 -92.296875 "/></g></g></g><g fill="#ffffff" fill-opacity="1"><g transform="translate(88.183851, 244.874984)"><g><path d="M 72.453125 -1.382812 L 37.378906 -91.605469 C 37.035156 -92.527344 35.417969 -92.527344 35.074219 -91.605469 L 0.117188 -1.382812 C -0.230469 -0.691406 0.230469 0 1.269531 0 L 17.074219 0 C 17.535156 0 18.113281 -0.230469 18.230469 -0.691406 L 36.226562 -52.148438 L 54.457031 -0.691406 C 54.570312 -0.230469 55.148438 0 55.496094 0 L 71.414062 0 C 72.222656 0 72.800781 -0.691406 72.453125 -1.382812 Z M 72.453125 -1.382812 "/></g></g></g><g fill="#ffffff" fill-opacity="1"><g transform="translate(164.328782, 244.874984)"><g><path d="M 62.992188 -1.5 C 57.226562 -14.304688 50.996094 -26.996094 45.226562 -40.035156 C 54.457031 -43.378906 62.1875 -50.765625 62.1875 -64.839844 C 62.1875 -92.066406 36.226562 -92.296875 31.035156 -92.296875 L 1.152344 -92.296875 C 0.578125 -92.296875 0 -91.722656 0 -91.257812 L 0 -75.570312 L 31.035156 -75.570312 C 33.804688 -75.570312 44.648438 -74.992188 44.648438 -64.839844 C 44.648438 -54.6875 34.84375 -54.226562 31.035156 -54.226562 L 0 -54.226562 L 0 -1.039062 C 0 -0.578125 0.578125 0 1.152344 0 L 16.265625 0 C 16.960938 0 17.535156 -0.578125 17.535156 -1.039062 L 17.535156 -37.265625 L 27.457031 -37.265625 L 44.304688 -0.691406 C 44.417969 -0.347656 45.109375 0 45.457031 0 L 61.953125 0 C 62.878906 0 63.339844 -0.691406 62.992188 -1.5 Z M 62.992188 -1.5 "/></g></g></g><g fill="#ffffff" fill-opacity="1"><g transform="translate(230.667179, 244.874984)"><g><path d="M 42.339844 -51.226562 C 35.765625 -54.339844 29.304688 -54.339844 28.726562 -54.339844 C 22.84375 -54.339844 17.191406 -57.800781 17.191406 -64.492188 C 17.191406 -71.878906 22.382812 -75.683594 28.726562 -75.683594 C 34.726562 -75.683594 39.804688 -72.570312 40.035156 -65.992188 C 40.035156 -65.648438 40.609375 -65.070312 41.304688 -65.070312 L 55.726562 -65.070312 C 56.53125 -65.070312 57.109375 -65.648438 56.992188 -65.992188 C 56.761719 -81.683594 44.535156 -92.296875 28.726562 -92.296875 C 13.960938 -92.296875 0 -81.800781 0 -64.492188 C 0 -53.761719 5.421875 -45.570312 15 -41.1875 C 21.691406 -38.074219 27.921875 -38.074219 28.726562 -38.074219 C 33.917969 -37.84375 40.265625 -33.6875 40.265625 -26.882812 C 40.265625 -20.765625 34.84375 -16.613281 28.726562 -16.613281 C 28.726562 -16.613281 28.726562 -16.613281 28.613281 -16.613281 L 28.613281 0 C 28.726562 0 28.726562 0 28.726562 0 C 43.496094 0 57.339844 -9.574219 57.339844 -26.882812 C 57.339844 -37.726562 52.03125 -46.726562 42.339844 -51.226562 Z M 42.339844 -51.226562 "/></g></g></g><g fill="#ffffff" fill-opacity="1"><g transform="translate(290.890885, 244.874984)"><g><path d="M 17.652344 -52.265625 L 17.652344 -91.257812 C 17.652344 -91.722656 17.191406 -92.296875 16.382812 -92.296875 L 1.269531 -92.296875 C 0.578125 -92.296875 0 -91.722656 0 -91.257812 L 0 -52.265625 Z M 68.992188 -92.296875 L 53.878906 -92.296875 C 53.1875 -92.296875 52.609375 -91.722656 52.609375 -91.257812 L 52.609375 -34.496094 L 17.652344 -34.496094 L 17.652344 -34.613281 L 0 -34.613281 L 0 -1.039062 C 0 -0.578125 0.578125 0 1.269531 0 L 16.382812 0 C 17.191406 0 17.652344 -0.578125 17.652344 -1.039062 L 17.652344 -17.304688 L 52.609375 -17.304688 L 52.609375 -1.039062 C 52.609375 -0.578125 53.1875 0 53.878906 0 L 68.992188 0 C 69.800781 0 70.261719 -0.578125 70.261719 -1.039062 L 70.261719 -91.257812 C 70.261719 -91.722656 69.800781 -92.296875 68.992188 -92.296875 Z M 68.992188 -92.296875 "/></g></g></g></svg>