<svg xmlns="http://www.w3.org/2000/svg" enable-background="new 0 0 24 24" viewBox="0 0 24 24"><path fill="#303c42" d="M12,6C5.271,6,0,8.636,0,12s5.271,6,12,6s12-2.636,12-6S18.729,6,12,6z"/><path fill="#82b1ff" d="M12,17c-2.875,0-5.528-0.536-7.512-1.391L4.891,14h1.754c1.322,0,2.47-0.896,2.791-2.179   l0.087-0.352c0.15-0.598,0.018-1.219-0.361-1.705C8.783,9.278,8.212,9,7.596,9H5.5C5.271,9,5.071,9.156,5.015,9.379l-1.448,5.79   C1.973,14.299,1,13.19,1,12c0-2.71,5.038-5,11-5s11,2.29,11,5S17.962,17,12,17z"/><path fill="#fff" d="M1.5,12.5c0-2.71,5.038-5,11-5c4.175,0,7.89,1.125,9.746,2.729   C20.633,8.363,16.597,7,12,7C6.038,7,1,9.29,1,12c0,0.798,0.445,1.557,1.213,2.234C1.755,13.691,1.5,13.106,1.5,12.5z" opacity=".2"/><path fill="#82b1ff" d="M5.141,13l0.75-3h1.706c0.306,0,0.589,0.138,0.777,0.379c0.188,0.241,0.254,0.55,0.179,0.847   l-0.087,0.352C8.256,12.416,7.507,13,6.645,13H5.141z"/><path fill="#82b1ff" d="M5.141,13l0.75-3h1.706c0.306,0,0.589,0.138,0.777,0.379c0.188,0.241,0.254,0.55,0.179,0.847   l-0.087,0.352C8.256,12.416,7.507,13,6.645,13H5.141z"/><path fill="#303c42" d="M19.096 9H17c-.229 0-.429.156-.485.379l-.998 3.989c-.002.007-.003.014-.005.021l-.497 1.99c-.067.268.096.539.364.606C15.419 15.995 15.46 16 15.5 16c.224 0 .428-.151.484-.379L16.391 14h1.754c1.322 0 2.47-.896 2.791-2.179l.087-.352c.15-.598.018-1.219-.361-1.705C20.283 9.278 19.712 9 19.096 9zM20.053 11.227l-.087.352C19.756 12.416 19.007 13 18.145 13h-1.504l.75-3h1.706c.306 0 .589.138.777.379C20.062 10.621 20.127 10.929 20.053 11.227zM14.695 9.61C14.379 9.223 13.912 9 13.411 9h-1.585l.166-.911c.05-.271-.13-.532-.402-.581-.27-.05-.532.13-.581.402l-1 5.5c-.05.271.13.532.402.581C10.441 13.998 10.471 14 10.5 14c.237 0 .448-.169.491-.411L11.644 10h1.767c.198 0 .383.088.508.242s.174.353.133.547l-.542 2.609c-.056.27.118.535.388.591C13.933 13.997 13.967 14 14 14c.232 0 .44-.162.489-.398l.542-2.609C15.134 10.502 15.011 9.999 14.695 9.61z"/><linearGradient id="a" x1="1.866" x2="22.134" y1="7.274" y2="16.726" gradientUnits="userSpaceOnUse"><stop offset="0" stop-color="#fff" stop-opacity=".2"/><stop offset="1" stop-color="#fff" stop-opacity="0"/></linearGradient><path fill="url(#a)" d="M12,6C5.271,6,0,8.636,0,12s5.271,6,12,6s12-2.636,12-6S18.729,6,12,6z"/></svg>