<svg xmlns="http://www.w3.org/2000/svg" xmlns:xlink="http://www.w3.org/1999/xlink" width="500" zoomAndPan="magnify" viewBox="0 0 375 374.999991" height="500" preserveAspectRatio="xMidYMid meet" version="1.0"><defs><g/></defs><g fill="#ffffff" fill-opacity="1"><g transform="translate(3.439457, 165.110423)"><g><path d="M 31.542969 -40.4375 L 31.542969 -22.375 L 9.234375 -22.375 L 9.234375 -40.4375 L 4.921875 -40.4375 L 4.921875 0 L 9.234375 0 L 9.234375 -18.0625 L 31.542969 -18.0625 L 31.542969 0 L 35.855469 0 L 35.855469 -40.4375 Z M 31.542969 -40.4375 "/></g></g></g><g fill="#ffffff" fill-opacity="1"><g transform="translate(44.206056, 165.110423)"><g><path d="M 31.070312 -13.75 C 30.867188 -21.5 24.734375 -27.496094 17.050781 -27.496094 C 9.300781 -27.496094 3.03125 -21.230469 3.03125 -13.480469 C 3.03125 -5.730469 9.300781 0.539062 17.050781 0.539062 C 23.453125 0.539062 28.777344 -3.707031 30.53125 -9.503906 L 26.082031 -9.503906 C 24.601562 -6 21.09375 -3.640625 17.050781 -3.640625 C 11.726562 -3.640625 7.480469 -7.683594 7.210938 -12.871094 L 31.003906 -12.871094 Z M 17.050781 -23.320312 C 21.363281 -23.320312 25.003906 -20.554688 26.285156 -16.648438 L 7.75 -16.648438 C 9.097656 -20.554688 12.738281 -23.320312 17.050781 -23.320312 Z M 17.050781 -23.320312 "/></g></g></g><g fill="#ffffff" fill-opacity="1"><g transform="translate(78.032226, 165.110423)"><g><path d="M 22.242188 -26.957031 L 13.882812 -4.851562 L 5.257812 -26.957031 L 0.605469 -26.957031 L 11.660156 0.203125 L 5.191406 16.175781 L 9.636719 16.175781 L 15.367188 2.023438 L 26.957031 -26.957031 Z M 22.242188 -26.957031 "/></g></g></g><g fill="#ffffff" fill-opacity="1"><g transform="translate(105.591795, 165.110423)"><g/></g></g><g fill="#ffffff" fill-opacity="1"><g transform="translate(121.831052, 165.110423)"><g><path d="M 27.296875 -40.4375 L 0.605469 -40.4375 L 0.605469 -36.125 L 11.792969 -36.125 L 11.792969 0 L 16.109375 0 L 16.109375 -36.125 L 27.296875 -36.125 Z M 27.296875 -40.4375 "/></g></g></g><g fill="#ffffff" fill-opacity="1"><g transform="translate(149.727535, 165.110423)"><g><path d="M 15.097656 -27.496094 C 12.871094 -27.496094 10.785156 -26.757812 9.097656 -25.542969 L 9.097656 -49.605469 L 4.921875 -49.605469 L 4.921875 0 L 9.097656 0 L 9.097656 -17.253906 C 9.097656 -20.691406 11.792969 -23.320312 15.097656 -23.320312 C 18.398438 -23.320312 21.164062 -20.691406 21.164062 -17.253906 L 21.164062 0 L 25.273438 0 L 25.273438 -17.253906 C 25.273438 -22.980469 20.757812 -27.496094 15.097656 -27.496094 Z M 15.097656 -27.496094 "/></g></g></g><g fill="#ffffff" fill-opacity="1"><g transform="translate(179.578119, 165.110423)"><g><path d="M 31.070312 -13.75 C 30.867188 -21.5 24.734375 -27.496094 17.050781 -27.496094 C 9.300781 -27.496094 3.03125 -21.230469 3.03125 -13.480469 C 3.03125 -5.730469 9.300781 0.539062 17.050781 0.539062 C 23.453125 0.539062 28.777344 -3.707031 30.53125 -9.503906 L 26.082031 -9.503906 C 24.601562 -6 21.09375 -3.640625 17.050781 -3.640625 C 11.726562 -3.640625 7.480469 -7.683594 7.210938 -12.871094 L 31.003906 -12.871094 Z M 17.050781 -23.320312 C 21.363281 -23.320312 25.003906 -20.554688 26.285156 -16.648438 L 7.75 -16.648438 C 9.097656 -20.554688 12.738281 -23.320312 17.050781 -23.320312 Z M 17.050781 -23.320312 "/></g></g></g><g fill="#ffffff" fill-opacity="1"><g transform="translate(213.404289, 165.110423)"><g><path d="M 18.0625 -27.496094 C 14.222656 -27.496094 11.121094 -25.8125 9.097656 -23.117188 L 9.097656 -26.957031 L 4.921875 -26.957031 L 4.921875 0 L 9.097656 0 L 9.097656 -14.625 C 9.097656 -19.546875 13.140625 -23.320312 18.0625 -23.320312 C 18.871094 -23.320312 19.546875 -23.25 20.152344 -23.050781 L 20.152344 -27.296875 C 19.546875 -27.429688 18.871094 -27.496094 18.0625 -27.496094 Z M 18.0625 -27.496094 "/></g></g></g><g fill="#ffffff" fill-opacity="1"><g transform="translate(233.888663, 165.110423)"><g><path d="M 31.070312 -13.75 C 30.867188 -21.5 24.734375 -27.496094 17.050781 -27.496094 C 9.300781 -27.496094 3.03125 -21.230469 3.03125 -13.480469 C 3.03125 -5.730469 9.300781 0.539062 17.050781 0.539062 C 23.453125 0.539062 28.777344 -3.707031 30.53125 -9.503906 L 26.082031 -9.503906 C 24.601562 -6 21.09375 -3.640625 17.050781 -3.640625 C 11.726562 -3.640625 7.480469 -7.683594 7.210938 -12.871094 L 31.003906 -12.871094 Z M 17.050781 -23.320312 C 21.363281 -23.320312 25.003906 -20.554688 26.285156 -16.648438 L 7.75 -16.648438 C 9.097656 -20.554688 12.738281 -23.320312 17.050781 -23.320312 Z M 17.050781 -23.320312 "/></g></g></g><g fill="#ffffff" fill-opacity="1"><g transform="translate(267.714833, 165.110423)"><g><path d="M 6.539062 -11.523438 L 9.839844 -11.523438 L 10.3125 -45.289062 L 6.132812 -45.289062 Z M 8.222656 0.539062 C 9.773438 0.539062 11.121094 -0.808594 11.121094 -2.359375 C 11.121094 -3.976562 9.773438 -5.257812 8.222656 -5.257812 C 6.671875 -5.257812 5.324219 -3.976562 5.324219 -2.359375 C 5.324219 -0.808594 6.671875 0.539062 8.222656 0.539062 Z M 8.222656 0.539062 "/></g></g></g><g fill="#ffffff" fill-opacity="1"><g transform="translate(284.156238, 165.110423)"><g/></g></g><g fill="#ffffff" fill-opacity="1"><g transform="translate(300.395495, 165.110423)"><g><path d="M 5.257812 0 L 9.570312 0 L 9.570312 -40.4375 L 5.257812 -40.4375 Z M 5.257812 0 "/></g></g></g><g fill="#ffffff" fill-opacity="1"><g transform="translate(315.152329, 165.110423)"><g><path d="M 17.320312 -22.914062 L 17.320312 -26.957031 L 10.109375 -26.957031 L 10.109375 -38.6875 L 5.929688 -38.6875 L 5.929688 -26.957031 L 1.414062 -26.957031 L 1.414062 -22.914062 L 5.929688 -22.914062 L 5.929688 -7.078125 C 5.929688 -2.832031 9.503906 0.539062 13.679688 0.539062 C 15.03125 0.539062 16.511719 0.136719 17.253906 -0.335938 L 17.253906 -3.503906 L 14.152344 -3.503906 C 11.996094 -3.503906 10.109375 -5.121094 10.109375 -7.617188 L 10.109375 -22.914062 Z M 17.320312 -22.914062 "/></g></g></g><g fill="#ffffff" fill-opacity="1"><g transform="translate(334.693344, 165.110423)"><g><path d="M 5.730469 -25.140625 L 8.828125 -25.140625 L 9.300781 -40.976562 L 5.324219 -40.976562 Z M 5.730469 -25.140625 "/></g></g></g><g fill="#ffffff" fill-opacity="1"><g transform="translate(349.248031, 165.110423)"><g><path d="M 11.59375 0.539062 C 16.308594 0.539062 20.21875 -2.628906 20.21875 -7.277344 C 20.21875 -12.132812 16.175781 -14.019531 12.671875 -15.433594 C 9.367188 -16.847656 7.683594 -17.589844 7.683594 -19.949219 C 7.683594 -22.242188 9.234375 -23.320312 11.457031 -23.320312 C 13.210938 -23.320312 14.761719 -22.578125 15.5 -21.164062 L 19.140625 -23.050781 C 18.128906 -25.476562 14.691406 -27.496094 11.253906 -27.496094 C 7.277344 -27.496094 3.4375 -24.734375 3.4375 -19.816406 C 3.4375 -15.570312 6.269531 -13.410156 11.054688 -11.59375 C 14.289062 -10.3125 16.039062 -9.4375 16.039062 -7.277344 C 16.039062 -4.921875 14.019531 -3.570312 11.59375 -3.570312 C 9.097656 -3.570312 6.671875 -4.988281 6.269531 -6.941406 L 2.222656 -5.324219 C 3.234375 -2.089844 7.277344 0.539062 11.59375 0.539062 Z M 11.59375 0.539062 "/></g></g></g><g fill="#ffffff" fill-opacity="1"><g transform="translate(6.41602, 242.360418)"><g><path d="M 32.714844 -41.941406 L 32.714844 -23.207031 L 9.578125 -23.207031 L 9.578125 -41.941406 L 5.101562 -41.941406 L 5.101562 0 L 9.578125 0 L 9.578125 -18.734375 L 32.714844 -18.734375 L 32.714844 0 L 37.1875 0 L 37.1875 -41.941406 Z M 32.714844 -41.941406 "/></g></g></g><g fill="#ffffff" fill-opacity="1"><g transform="translate(48.698033, 242.360418)"><g><path d="M 35.089844 -3.636719 C 33.550781 -3.636719 32.222656 -4.683594 32.222656 -7.269531 L 32.222656 -27.960938 L 27.890625 -27.960938 L 27.890625 -24.324219 C 25.304688 -26.910156 21.667969 -28.519531 17.683594 -28.519531 C 9.644531 -28.519531 3.144531 -22.019531 3.144531 -13.980469 C 3.144531 -5.941406 9.644531 0.558594 17.683594 0.558594 C 21.878906 0.558594 25.652344 -1.398438 28.308594 -4.265625 C 29.21875 -1.398438 31.453125 0.558594 34.742188 0.558594 C 35.507812 0.558594 36.277344 0.347656 36.835938 0 L 36.835938 -3.636719 Z M 17.683594 -3.773438 C 12.023438 -3.773438 7.480469 -8.316406 7.480469 -13.980469 C 7.480469 -19.640625 12.023438 -24.183594 17.683594 -24.183594 C 23.277344 -24.183594 27.890625 -19.640625 27.890625 -13.980469 C 27.890625 -8.316406 23.277344 -3.773438 17.683594 -3.773438 Z M 17.683594 -3.773438 "/></g></g></g><g fill="#ffffff" fill-opacity="1"><g transform="translate(86.367472, 242.360418)"><g><path d="M 18.734375 -28.519531 C 14.75 -28.519531 11.535156 -26.773438 9.4375 -23.976562 L 9.4375 -27.960938 L 5.101562 -27.960938 L 5.101562 0 L 9.4375 0 L 9.4375 -15.167969 C 9.4375 -20.269531 13.628906 -24.183594 18.734375 -24.183594 C 19.570312 -24.183594 20.269531 -24.117188 20.898438 -23.90625 L 20.898438 -28.308594 C 20.269531 -28.449219 19.570312 -28.519531 18.734375 -28.519531 Z M 18.734375 -28.519531 "/></g></g></g><g fill="#ffffff" fill-opacity="1"><g transform="translate(107.613313, 242.360418)"><g><path d="M 12.023438 0.558594 C 16.914062 0.558594 20.96875 -2.726562 20.96875 -7.550781 C 20.96875 -12.582031 16.777344 -14.539062 13.140625 -16.007812 C 9.714844 -17.476562 7.96875 -18.242188 7.96875 -20.691406 C 7.96875 -23.066406 9.578125 -24.183594 11.882812 -24.183594 C 13.699219 -24.183594 15.308594 -23.417969 16.078125 -21.949219 L 19.851562 -23.90625 C 18.804688 -26.421875 15.238281 -28.519531 11.671875 -28.519531 C 7.550781 -28.519531 3.566406 -25.652344 3.566406 -20.550781 C 3.566406 -16.148438 6.5 -13.910156 11.464844 -12.023438 C 14.820312 -10.695312 16.636719 -9.785156 16.636719 -7.550781 C 16.636719 -5.101562 14.539062 -3.703125 12.023438 -3.703125 C 9.4375 -3.703125 6.921875 -5.171875 6.5 -7.199219 L 2.308594 -5.523438 C 3.355469 -2.167969 7.550781 0.558594 12.023438 0.558594 Z M 12.023438 0.558594 "/></g></g></g><g fill="#ffffff" fill-opacity="1"><g transform="translate(130.746124, 242.360418)"><g><path d="M 15.65625 -28.519531 C 13.351562 -28.519531 11.183594 -27.75 9.4375 -26.492188 L 9.4375 -51.445312 L 5.101562 -51.445312 L 5.101562 0 L 9.4375 0 L 9.4375 -17.894531 C 9.4375 -21.460938 12.234375 -24.183594 15.65625 -24.183594 C 19.082031 -24.183594 21.949219 -21.460938 21.949219 -17.894531 L 21.949219 0 L 26.210938 0 L 26.210938 -17.894531 C 26.210938 -23.835938 21.527344 -28.519531 15.65625 -28.519531 Z M 15.65625 -28.519531 "/></g></g></g><g fill="#ffffff" fill-opacity="1"><g transform="translate(161.70635, 242.360418)"><g/></g></g><g fill="#ffffff" fill-opacity="1"><g transform="translate(178.549271, 242.360418)"><g><path d="M 20.132812 -41.941406 L 5.101562 -41.941406 L 5.101562 0 L 9.578125 0 L 9.578125 -18.664062 L 20.132812 -18.664062 C 26.632812 -18.664062 31.804688 -23.765625 31.804688 -30.265625 C 31.804688 -36.699219 26.632812 -41.941406 20.132812 -41.941406 Z M 19.710938 -22.925781 L 9.578125 -22.925781 L 9.578125 -37.605469 L 19.710938 -37.605469 C 23.90625 -37.605469 27.332031 -34.671875 27.332031 -30.195312 C 27.332031 -25.582031 23.90625 -22.925781 19.710938 -22.925781 Z M 19.710938 -22.925781 "/></g></g></g><g fill="#ffffff" fill-opacity="1"><g transform="translate(211.536245, 242.360418)"><g><path d="M 18.734375 -28.519531 C 14.75 -28.519531 11.535156 -26.773438 9.4375 -23.976562 L 9.4375 -27.960938 L 5.101562 -27.960938 L 5.101562 0 L 9.4375 0 L 9.4375 -15.167969 C 9.4375 -20.269531 13.628906 -24.183594 18.734375 -24.183594 C 19.570312 -24.183594 20.269531 -24.117188 20.898438 -23.90625 L 20.898438 -28.308594 C 20.269531 -28.449219 19.570312 -28.519531 18.734375 -28.519531 Z M 18.734375 -28.519531 "/></g></g></g><g fill="#ffffff" fill-opacity="1"><g transform="translate(232.782086, 242.360418)"><g><path d="M 35.089844 -3.636719 C 33.550781 -3.636719 32.222656 -4.683594 32.222656 -7.269531 L 32.222656 -27.960938 L 27.890625 -27.960938 L 27.890625 -24.324219 C 25.304688 -26.910156 21.667969 -28.519531 17.683594 -28.519531 C 9.644531 -28.519531 3.144531 -22.019531 3.144531 -13.980469 C 3.144531 -5.941406 9.644531 0.558594 17.683594 0.558594 C 21.878906 0.558594 25.652344 -1.398438 28.308594 -4.265625 C 29.21875 -1.398438 31.453125 0.558594 34.742188 0.558594 C 35.507812 0.558594 36.277344 0.347656 36.835938 0 L 36.835938 -3.636719 Z M 17.683594 -3.773438 C 12.023438 -3.773438 7.480469 -8.316406 7.480469 -13.980469 C 7.480469 -19.640625 12.023438 -24.183594 17.683594 -24.183594 C 23.277344 -24.183594 27.890625 -19.640625 27.890625 -13.980469 C 27.890625 -8.316406 23.277344 -3.773438 17.683594 -3.773438 Z M 17.683594 -3.773438 "/></g></g></g><g fill="#ffffff" fill-opacity="1"><g transform="translate(270.451525, 242.360418)"><g><path d="M 12.023438 0.558594 C 16.914062 0.558594 20.96875 -2.726562 20.96875 -7.550781 C 20.96875 -12.582031 16.777344 -14.539062 13.140625 -16.007812 C 9.714844 -17.476562 7.96875 -18.242188 7.96875 -20.691406 C 7.96875 -23.066406 9.578125 -24.183594 11.882812 -24.183594 C 13.699219 -24.183594 15.308594 -23.417969 16.078125 -21.949219 L 19.851562 -23.90625 C 18.804688 -26.421875 15.238281 -28.519531 11.671875 -28.519531 C 7.550781 -28.519531 3.566406 -25.652344 3.566406 -20.550781 C 3.566406 -16.148438 6.5 -13.910156 11.464844 -12.023438 C 14.820312 -10.695312 16.636719 -9.785156 16.636719 -7.550781 C 16.636719 -5.101562 14.539062 -3.703125 12.023438 -3.703125 C 9.4375 -3.703125 6.921875 -5.171875 6.5 -7.199219 L 2.308594 -5.523438 C 3.355469 -2.167969 7.550781 0.558594 12.023438 0.558594 Z M 12.023438 0.558594 "/></g></g></g><g fill="#ffffff" fill-opacity="1"><g transform="translate(293.584336, 242.360418)"><g><path d="M 35.089844 -3.636719 C 33.550781 -3.636719 32.222656 -4.683594 32.222656 -7.269531 L 32.222656 -27.960938 L 27.890625 -27.960938 L 27.890625 -24.324219 C 25.304688 -26.910156 21.667969 -28.519531 17.683594 -28.519531 C 9.644531 -28.519531 3.144531 -22.019531 3.144531 -13.980469 C 3.144531 -5.941406 9.644531 0.558594 17.683594 0.558594 C 21.878906 0.558594 25.652344 -1.398438 28.308594 -4.265625 C 29.21875 -1.398438 31.453125 0.558594 34.742188 0.558594 C 35.507812 0.558594 36.277344 0.347656 36.835938 0 L 36.835938 -3.636719 Z M 17.683594 -3.773438 C 12.023438 -3.773438 7.480469 -8.316406 7.480469 -13.980469 C 7.480469 -19.640625 12.023438 -24.183594 17.683594 -24.183594 C 23.277344 -24.183594 27.890625 -19.640625 27.890625 -13.980469 C 27.890625 -8.316406 23.277344 -3.773438 17.683594 -3.773438 Z M 17.683594 -3.773438 "/></g></g></g><g fill="#ffffff" fill-opacity="1"><g transform="translate(331.253775, 242.360418)"><g><path d="M 27.890625 -51.445312 L 27.890625 -24.324219 C 25.234375 -26.910156 21.667969 -28.519531 17.683594 -28.519531 C 9.644531 -28.519531 3.144531 -22.019531 3.144531 -13.980469 C 3.144531 -5.941406 9.644531 0.558594 17.683594 0.558594 C 21.667969 0.558594 25.234375 -1.046875 27.890625 -3.636719 L 27.890625 0 L 32.222656 0 L 32.222656 -51.445312 Z M 17.683594 -3.773438 C 12.023438 -3.773438 7.480469 -8.316406 7.480469 -13.980469 C 7.480469 -19.640625 12.023438 -24.183594 17.683594 -24.183594 C 23.277344 -24.183594 27.890625 -19.640625 27.890625 -13.980469 C 27.890625 -8.316406 23.277344 -3.773438 17.683594 -3.773438 Z M 17.683594 -3.773438 "/></g></g></g></svg>